<svg xmlns="http://www.w3.org/2000/svg" width="256" height="256" viewBox="0 0 2560 2560" preserveAspectRatio="xMidYMid meet"><path d="M385 2339c-33-5-71-11-84-14-32-8-131-103-147-142-19-44-18-180 1-216 8-16 19-47 25-68 6-22 27-58 47-80 35-39 36-39 108-39s73 0 109 40c22 24 36 50 36 66 0 14 4 24 9 22 22-7 412-421 404-429-4-4-30-16-58-27-219-86-374-191-491-331-113-136-150-248-142-434 5-124 18-154 102-241 89-91 133-109 281-114 97-3 129 0 165 14 30 11 91 19 185 24 116 6 148 11 188 30 64 31 146 106 168 155 25 54 27 231 3 280-16 35-105 125-124 125-23 0-7 17 46 49l56 33 54-53c30-29 72-60 93-69 34-13 78-62 292-330l292-357 41-43h75c68 0 78 3 103 27 26 25 28 32 28 105 0 59-5 89-20 118-11 22-20 58-20 80 0 25-11 63-30 100-20 41-30 75-30 107-1 38-7 55-30 83-26 30-30 42-30 97 0 78-11 94-226 319l-153 161 41 39c52 50 218 239 331 377l87 107h83c81 0 84 1 115 33 30 31 32 37 32 106 0 63-4 81-31 129-35 65-72 108-111 128-31 16-154 19-241 4-77-12-137-13-383-4l-211 7-41-38-42-37v-214l33-32a145.52 145.52 0 0 1 75-38c23-4 45-11 48-15 8-14-113-189-131-189-3 0-108 99-232 221-285 279-339 323-435 354-79 26-191 31-313 14z" fill="#1b395b"/><path d="M388 2306c-85-13-111-27-171-99-36-42-40-53-45-115-3-50 0-78 12-103 8-19 23-54 31-79 9-25 28-57 42-72 23-24 35-28 79-28 46 0 55 4 81 34 18 20 33 50 37 75 6 43 14 48 46 31 22-12 460-468 460-479 0-4-55-31-122-59-68-29-161-73-207-99-157-88-332-282-377-415-13-39-18-85-18-173-1-112 1-123 25-165 42-71 135-153 202-178 77-29 204-30 279-3 39 14 86 21 178 23 103 3 134 8 175 26 58 27 151 113 171 159 21 50 18 185-5 231-35 67-111 122-171 122-16 0-30 4-30 9 0 6 50 40 111 77l111 66 59-65c44-48 68-67 96-74 34-8 61-38 290-323 353-442 323-410 392-410 47 0 61 4 79 23 30 31 30 121 2 177-11 22-20 56-20 77 0 23-12 62-30 96-21 41-30 72-30 106 0 39-6 56-30 86-26 33-30 46-30 101 0 60-2 66-47 121-26 32-112 127-192 211s-148 157-149 163c-2 5 31 47 75 92 43 45 129 143 191 217 211 253 226 269 242 263 8-3 41-8 73-11 54-4 61-2 88 24 59 57 30 180-66 274-52 51-92 58-234 41-130-16-184-17-407-7l-190 9-37-33-37-32v-82c0-80 1-83 33-114 23-23 49-35 90-43 31-7 57-17 57-23 0-20-64-125-120-195l-55-69-35 30c-19 17-138 130-265 252-126 122-255 240-285 263-101 75-223 96-402 69zm245-106c84-26 135-66 367-294l376-367 81 93c131 152 223 309 223 382 0 27-22 37-120 56-92 17-102 24-98 68l3 37 233-4c142-2 279 2 352 9 143 15 154 11 200-80 35-69 26-77-40-34-49 32-68 27-117-34-21-26-41-49-44-52s-68-79-143-170c-76-91-193-224-261-295l-122-131 184-194c163-172 263-288 263-305 0-11-37-4-73 14-20 10-37 17-37 14 0-2 36-50 80-106s80-106 80-111c0-4-9-6-20-3s-20 4-20 2c0-1 25-50 55-108 44-85 53-110 46-129-6-17-2-37 20-80 16-31 25-59 20-62-4-3-44 40-87 96s-84 106-89 112c-6 6-60 73-120 150-265 335-287 359-336 373-39 11-54 24-109 93-34 44-66 83-70 85-9 5-310-178-375-228-55-42-123-106-147-140l-21-29 24-21c52-46 69-78 69-128 0-26-4-59-10-73-9-24-7-25 45-36 64-13 123-1 171 36 61 45 49 114-20 114-17 0-58 7-91 14-91 22-126 77-91 145 17 31 62 65 76 56 6-3 5-16-1-33-14-36 9-52 75-52 128 0 208-108 157-213-37-76-96-116-203-137-59-12-74-11-126 3l-58 16-58-30c-136-68-303-12-373 124-23 45-25 60-21 133 4 70 10 94 41 156 44 90 114 178 190 239 68 55 251 151 387 203 160 62 180 71 180 78 0 17-175 211-369 410-227 233-235 238-333 238-43 0-47-2-57-31-6-18-11-45-11-61 0-32-16-68-30-68-4 0-12 15-15 33-4 17-16 49-28 69-26 47-18 100 20 140 39 42 60 51 123 59 100 11 137 9 203-11zm482-830c-11-5-65-26-120-46-136-49-258-107-305-144-34-27-39-36-38-71 0-27-8-52-26-79-27-41-43-49-64-28-9 9-15 8-26-8-26-34-28-62-6-84 11-11 20-24 20-28 0-19-28-44-45-41-32 7-40 77-18 154 5 18 4 18-11 6-55-45-101-177-93-264 14-160 177-268 312-208l49 22-25 22c-37 33-72 86-89 137-20 60-35 61-35 3 0-43 3-49 35-71 33-23 40-45 20-66-14-14-94 47-114 87-17 36-17 41-2 81 9 23 32 58 51 76 19 19 35 41 35 51 0 37 74 160 135 227 66 71 187 160 323 238 70 40 88 57 37 34zM735 759c-10-31 2-80 28-113 31-39 47-27 47 35 0 41-5 54-26 74-33 30-41 31-49 4z" fill="#f5d8a0"/></svg>